<svg width="1505" height="485" viewBox="0 0 1505 485" fill="none" xmlns="http://www.w3.org/2000/svg">
<rect width="1505" height="485" fill="white"/>
<path d="M721.01 188V100.476H752.016C783.103 100.476 798.647 114.697 798.647 143.139C798.647 156.77 794.395 167.655 785.891 175.793C777.427 183.931 766.136 188 752.016 188H721.01ZM740.725 116.528V172.009H750.49C759.035 172.009 765.729 169.445 770.571 164.318C775.454 159.191 777.895 152.213 777.895 143.383C777.895 135.042 775.474 128.491 770.632 123.73C765.83 118.929 759.076 116.528 750.368 116.528H740.725ZM867.434 162.243H826.662C827.313 171.317 833.03 175.854 843.813 175.854C850.69 175.854 856.732 174.226 861.94 170.971V184.887C856.162 187.98 848.655 189.526 839.418 189.526C829.327 189.526 821.494 186.739 815.92 181.164C810.345 175.549 807.558 167.736 807.558 157.727C807.558 147.351 810.569 139.131 816.591 133.068C822.613 127.006 830.019 123.974 838.808 123.974C847.923 123.974 854.962 126.68 859.926 132.092C864.931 137.504 867.434 144.848 867.434 154.125V162.243ZM849.55 150.402C849.55 141.451 845.929 136.975 838.686 136.975C835.594 136.975 832.908 138.256 830.629 140.82C828.391 143.383 827.028 146.577 826.54 150.402H849.55ZM935.061 162.243H894.289C894.94 171.317 900.657 175.854 911.44 175.854C918.317 175.854 924.359 174.226 929.567 170.971V184.887C923.789 187.98 916.282 189.526 907.045 189.526C896.954 189.526 889.121 186.739 883.547 181.164C877.972 175.549 875.185 167.736 875.185 157.727C875.185 147.351 878.196 139.131 884.218 133.068C890.24 127.006 897.646 123.974 906.435 123.974C915.55 123.974 922.589 126.68 927.553 132.092C932.558 137.504 935.061 144.848 935.061 154.125V162.243ZM917.177 150.402C917.177 141.451 913.556 136.975 906.313 136.975C903.221 136.975 900.535 138.256 898.256 140.82C896.018 143.383 894.655 146.577 894.167 150.402H917.177ZM966.066 180.737H965.822V216.748H946.535V125.5H965.822V134.899H966.066C970.827 127.616 977.521 123.974 986.147 123.974C994.244 123.974 1000.49 126.761 1004.88 132.336C1009.32 137.87 1011.54 145.418 1011.54 154.98C1011.54 165.397 1008.95 173.758 1003.79 180.065C998.659 186.372 991.823 189.526 983.278 189.526C975.751 189.526 970.013 186.596 966.066 180.737ZM965.517 155.102V160.107C965.517 164.42 966.656 167.94 968.935 170.666C971.214 173.392 974.204 174.755 977.907 174.755C982.302 174.755 985.699 173.067 988.1 169.689C990.542 166.271 991.762 161.45 991.762 155.224C991.762 144.238 987.49 138.745 978.945 138.745C974.998 138.745 971.763 140.25 969.24 143.261C966.758 146.232 965.517 150.179 965.517 155.102ZM1045.66 157.849V188H1025.94V100.476H1056.83C1078.88 100.476 1089.91 109.773 1089.91 128.369C1089.91 137.158 1086.73 144.278 1080.39 149.731C1074.08 155.143 1065.64 157.849 1055.06 157.849H1045.66ZM1045.66 115.612V142.895H1053.41C1063.91 142.895 1069.15 138.297 1069.15 129.101C1069.15 120.109 1063.91 115.612 1053.41 115.612H1045.66ZM1149.66 188H1131.41V179.028H1131.17C1126.98 186.027 1120.77 189.526 1112.55 189.526C1106.49 189.526 1101.71 187.817 1098.21 184.399C1094.75 180.94 1093.02 176.342 1093.02 170.605C1093.02 158.479 1100.2 151.481 1114.56 149.609L1131.53 147.351C1131.53 140.515 1127.83 137.097 1120.42 137.097C1112.98 137.097 1105.9 139.314 1099.18 143.75V129.223C1101.87 127.84 1105.53 126.619 1110.17 125.561C1114.85 124.503 1119.1 123.974 1122.93 123.974C1140.75 123.974 1149.66 132.865 1149.66 150.646V188ZM1131.53 162.609V158.398L1120.18 159.863C1113.91 160.677 1110.78 163.505 1110.78 168.347C1110.78 170.544 1111.53 172.355 1113.04 173.779C1114.59 175.162 1116.66 175.854 1119.26 175.854C1122.89 175.854 1125.84 174.613 1128.11 172.131C1130.39 169.608 1131.53 166.434 1131.53 162.609ZM1224.43 125.5L1201.17 188H1179.2L1157.05 125.5H1177.68L1188.54 164.013C1189.76 168.367 1190.47 172.07 1190.68 175.122H1190.92C1191.2 172.233 1191.96 168.652 1193.18 164.379L1204.29 125.5H1224.43ZM1251.96 188H1232.67V95.4707H1251.96V188ZM1297.98 189.526C1287.56 189.526 1279.36 186.617 1273.38 180.798C1267.44 174.938 1264.47 167.004 1264.47 156.994C1264.47 146.659 1267.56 138.582 1273.74 132.763C1279.93 126.904 1288.29 123.974 1298.83 123.974C1309.21 123.974 1317.34 126.904 1323.24 132.763C1329.14 138.582 1332.09 146.293 1332.09 155.896C1332.09 166.271 1329.04 174.471 1322.94 180.493C1316.88 186.515 1308.56 189.526 1297.98 189.526ZM1298.46 138.745C1293.91 138.745 1290.37 140.311 1287.84 143.444C1285.32 146.577 1284.06 151.013 1284.06 156.75C1284.06 168.754 1288.9 174.755 1298.59 174.755C1307.82 174.755 1312.44 168.591 1312.44 156.262C1312.44 144.584 1307.78 138.745 1298.46 138.745ZM1404.12 125.5L1380.86 188H1358.89L1336.73 125.5H1357.36L1368.23 164.013C1369.45 168.367 1370.16 172.07 1370.36 175.122H1370.61C1370.89 172.233 1371.65 168.652 1372.87 164.379L1383.97 125.5H1404.12ZM722.475 354V266.476H746.645C777.488 266.476 792.91 280.697 792.91 309.139C792.91 322.648 788.617 333.513 780.031 341.732C771.486 349.911 760.032 354 745.668 354H722.475ZM732.729 275.753V344.723H745.791C757.265 344.723 766.197 341.651 772.585 335.506C778.973 329.362 782.167 320.654 782.167 309.383C782.167 286.963 770.245 275.753 746.401 275.753H732.729ZM854.555 275.753H820.375V306.026H851.992V315.243H820.375V354H810.122V266.476H854.555V275.753ZM951.845 354H905.458V266.476H949.892V275.753H915.712V304.867H947.329V314.083H915.712V344.723H951.845V354ZM1019.23 354H1009.22V318.355C1009.22 305.09 1004.38 298.458 994.692 298.458C989.687 298.458 985.537 300.35 982.241 304.134C978.986 307.878 977.358 312.618 977.358 318.355V354H967.348V291.5H977.358V301.876H977.602C982.322 293.982 989.158 290.035 998.11 290.035C1004.95 290.035 1010.17 292.253 1013.8 296.688C1017.42 301.083 1019.23 307.451 1019.23 315.792V354ZM1091.49 348.995C1091.49 371.944 1080.51 383.419 1058.53 383.419C1050.8 383.419 1044.05 381.954 1038.27 379.024V369.015C1045.31 372.921 1052.02 374.874 1058.41 374.874C1073.79 374.874 1081.48 366.695 1081.48 350.338V343.502H1081.24C1076.48 351.477 1069.32 355.465 1059.76 355.465C1051.98 355.465 1045.72 352.698 1040.96 347.164C1036.24 341.59 1033.88 334.123 1033.88 324.764C1033.88 314.144 1036.42 305.701 1041.51 299.435C1046.63 293.168 1053.63 290.035 1062.5 290.035C1070.92 290.035 1077.17 293.412 1081.24 300.167H1081.48V291.5H1091.49V348.995ZM1081.48 325.741V316.524C1081.48 311.56 1079.8 307.308 1076.42 303.768C1073.08 300.228 1068.91 298.458 1063.91 298.458C1057.72 298.458 1052.88 300.716 1049.38 305.233C1045.88 309.709 1044.13 315.995 1044.13 324.093C1044.13 331.051 1045.8 336.625 1049.14 340.816C1052.51 344.967 1056.97 347.042 1062.5 347.042C1068.12 347.042 1072.67 345.048 1076.17 341.061C1079.71 337.073 1081.48 331.966 1081.48 325.741ZM1116.88 275.631C1115.09 275.631 1113.57 275.021 1112.31 273.8C1111.05 272.579 1110.41 271.033 1110.41 269.161C1110.41 267.289 1111.05 265.743 1112.31 264.522C1113.57 263.261 1115.09 262.63 1116.88 262.63C1118.72 262.63 1120.26 263.261 1121.52 264.522C1122.83 265.743 1123.48 267.289 1123.48 269.161C1123.48 270.951 1122.83 272.477 1121.52 273.739C1120.26 275 1118.72 275.631 1116.88 275.631ZM1121.77 354H1111.76V291.5H1121.77V354ZM1193.91 354H1183.9V318.355C1183.9 305.09 1179.06 298.458 1169.37 298.458C1164.37 298.458 1160.22 300.35 1156.92 304.134C1153.67 307.878 1152.04 312.618 1152.04 318.355V354H1142.03V291.5H1152.04V301.876H1152.28C1157 293.982 1163.84 290.035 1172.79 290.035C1179.63 290.035 1184.86 292.253 1188.48 296.688C1192.1 301.083 1193.91 307.451 1193.91 315.792V354ZM1263.06 325.252H1218.94C1219.1 332.21 1220.97 337.582 1224.55 341.366C1228.13 345.15 1233.05 347.042 1239.32 347.042C1246.36 347.042 1252.83 344.723 1258.73 340.084V349.483C1253.24 353.471 1245.97 355.465 1236.94 355.465C1228.11 355.465 1221.17 352.637 1216.13 346.981C1211.08 341.284 1208.56 333.289 1208.56 322.994C1208.56 313.269 1211.31 305.355 1216.8 299.251C1222.33 293.107 1229.19 290.035 1237.37 290.035C1245.55 290.035 1251.87 292.68 1256.35 297.97C1260.83 303.259 1263.06 310.604 1263.06 320.003V325.252ZM1252.81 316.769C1252.77 310.991 1251.37 306.494 1248.6 303.28C1245.87 300.065 1242.07 298.458 1237.18 298.458C1232.46 298.458 1228.46 300.147 1225.16 303.524C1221.86 306.901 1219.83 311.316 1219.06 316.769H1252.81Z" fill="#1C36FB"/>
<path fill-rule="evenodd" clip-rule="evenodd" d="M240 427C322.843 427 390 359.843 390 277C390 194.157 322.843 127 240 127C157.158 127 90.0005 194.157 90.0005 277C90.0005 359.843 157.158 427 240 427ZM285.203 339.569L313.451 253.301L240.134 199.778L166.574 252.966L194.428 339.362L285.203 339.569Z" fill="url(#paint0_linear_165_133)"/>
<path d="M313.45 253.301L285.203 339.569L256.071 426.149C331.357 418.13 390 354.413 390 277C390 233.705 371.658 194.695 342.321 167.315L313.45 253.301Z" fill="#61BCA7"/>
<path d="M285.203 339.568L194.428 339.361H103.538C127.209 391.074 179.409 426.999 240 426.999C300.511 426.999 352.653 391.17 376.368 339.568H285.203Z" fill="#077AC9"/>
<path d="M166.55 253.301L194.798 339.569L223.929 426.149C148.643 418.13 90.0001 354.413 90.0001 277C90.0001 233.705 108.342 194.695 137.679 167.315L166.55 253.301Z" fill="#1C59E3"/>
<path d="M166.574 252.966L240.134 199.778L166.877 146C121.009 171.658 90.0005 220.708 90.0005 277C90.0005 285.955 90.7852 294.727 92.2896 303.25L166.574 252.966Z" fill="#2036FF"/>
<path d="M550 221.109H464C455.716 221.109 449 214.394 449 206.109V175.262" stroke="url(#paint1_linear_165_133)" stroke-width="12"/>
<path d="M498 93.7549H433C424.716 93.7549 418 100.471 418 108.755V122.282" stroke="url(#paint2_linear_165_133)" stroke-width="12"/>
<path fill-rule="evenodd" clip-rule="evenodd" d="M623.544 57H525.456C520.786 57 517 61.1922 517 66.3636V150.636C517 155.808 520.786 160 525.456 160H623.544C628.214 160 632 155.808 632 150.636V66.3636C632 61.1922 628.214 57 623.544 57ZM536.509 67.557H612.491H614.563C618.089 67.557 620.947 70.4789 620.947 74.0832V76.9207V140.079V142.917C620.947 146.521 618.089 149.443 614.563 149.443H612.491H536.509H534.437C530.911 149.443 528.053 146.521 528.053 142.917V140.079V76.9207V74.0832C528.053 70.4789 530.911 67.557 534.437 67.557H536.509Z" fill="url(#paint3_linear_165_133)"/>
<path fill-rule="evenodd" clip-rule="evenodd" d="M623.544 57H525.456C520.786 57 517 61.1922 517 66.3636V150.636C517 155.808 520.786 160 525.456 160H623.544C628.214 160 632 155.808 632 150.636V66.3636C632 61.1922 628.214 57 623.544 57ZM536.509 67.557H612.491H614.563C618.089 67.557 620.947 70.4789 620.947 74.0832V76.9207V140.079V142.917C620.947 146.521 618.089 149.443 614.563 149.443H612.491H536.509H534.437C530.911 149.443 528.053 146.521 528.053 142.917V140.079V76.9207V74.0832C528.053 70.4789 530.911 67.557 534.437 67.557H536.509Z" fill="url(#paint4_linear_165_133)"/>
<rect x="380" y="120.339" width="104.888" height="65.8026" rx="15" fill="#2036FF"/>
<rect x="548.112" y="188.103" width="104.888" height="65.8026" rx="15" fill="#2036FF"/>
<rect x="497.499" y="75.4033" width="104.888" height="65.8026" rx="15" fill="#2036FF"/>
<defs>
<linearGradient id="paint0_linear_165_133" x1="248" y1="122.5" x2="240" y2="161.5" gradientUnits="userSpaceOnUse">
<stop stop-color="#70DB97" stop-opacity="0"/>
<stop offset="0.576716" stop-color="#70DB97" stop-opacity="0.656326"/>
<stop offset="1" stop-color="#70DB97"/>
</linearGradient>
<linearGradient id="paint1_linear_165_133" x1="491" y1="221" x2="446.845" y2="173.619" gradientUnits="userSpaceOnUse">
<stop offset="0.00312487" stop-color="#243AFC"/>
<stop offset="1" stop-color="#253AFB" stop-opacity="0.04"/>
</linearGradient>
<linearGradient id="paint2_linear_165_133" x1="458" y1="94" x2="421.531" y2="126.021" gradientUnits="userSpaceOnUse">
<stop offset="0.00312487" stop-color="#243AFC"/>
<stop offset="1" stop-color="#253AFB" stop-opacity="0.04"/>
</linearGradient>
<linearGradient id="paint3_linear_165_133" x1="607.5" y1="173.804" x2="516.484" y2="131.316" gradientUnits="userSpaceOnUse">
<stop stop-color="#2036FF"/>
<stop offset="1" stop-color="#2036FF" stop-opacity="0"/>
</linearGradient>
<linearGradient id="paint4_linear_165_133" x1="574.5" y1="57" x2="572.236" y2="141.571" gradientUnits="userSpaceOnUse">
<stop offset="0.330529" stop-color="#2036FF"/>
<stop offset="1" stop-color="#2036FF" stop-opacity="0"/>
</linearGradient>
</defs>
</svg>
